<?xml version="1.0" encoding="UTF-8" standalone="no"?>
<!-- Created with Inkscape (http://www.inkscape.org/) -->
<svg
   xmlns:svg="http://www.w3.org/2000/svg"
   xmlns="http://www.w3.org/2000/svg"
   version="1.0"
   width="906.20074"
   height="159.30708"
   id="svg1972">
  <defs
     id="defs1974" />
  <g
     transform="translate(-65.40988,-678.9053)"
     id="layer1">
    <g
       transform="translate(7.081682,7.089901)"
       id="g1991">
      <path
         d="M 277.82842,803.98914 C 278.02488,811.719 279.31697,814.29564 281.29667,814.98326 C 282.98168,815.58023 284.86318,815.67841 286.44995,815.67841 C 287.538,815.67841 288.13496,815.87489 288.13496,816.4718 C 288.13496,817.26518 287.24334,817.46166 285.86057,817.46166 C 279.4152,817.46166 275.44824,817.167 273.56677,817.167 C 272.67515,817.167 268.02059,817.46166 262.86733,817.46166 C 261.57523,817.46166 260.68361,817.36342 260.68361,816.4718 C 260.68361,815.87489 261.28055,815.67841 262.2704,815.67841 C 263.56249,815.67841 265.34573,815.58023 266.7285,815.18727 C 269.30513,814.39388 269.70561,811.51499 269.80383,802.89351 L 270.69545,744.23543 C 270.69545,742.24817 270.99015,740.86541 271.97999,740.86541 C 273.07563,740.86541 273.96725,742.14993 275.65226,743.93319 C 276.83857,745.2253 291.89789,761.37271 306.36781,775.74439 C 313.10787,782.48444 326.51243,796.75035 328.17475,798.33719 L 328.62815,798.33719 L 327.64581,753.84679 C 327.57026,747.80194 326.66352,745.91292 324.32117,744.92306 C 322.81746,744.33367 320.4373,744.33367 319.05453,744.33367 C 317.86825,744.33367 317.46776,744.03143 317.46776,743.44205 C 317.46776,742.64866 318.55581,742.5429 320.0444,742.5429 C 325.2279,742.5429 329.98822,742.84514 332.0284,742.84514 C 333.16177,742.84514 336.86426,742.5429 341.77574,742.5429 C 343.06026,742.5429 344.04261,742.64866 344.04261,743.44205 C 344.04261,744.03143 343.43812,744.33367 342.22913,744.33367 C 341.24679,744.33367 340.49121,744.33367 339.28223,744.62833 C 336.48647,745.42178 335.73089,747.4997 335.57973,753.0534 L 334.52191,815.58023 C 334.52191,817.76391 334.14405,818.65554 333.23732,818.65554 C 332.10394,818.65554 330.97051,817.56743 329.83707,816.4718 C 323.61085,810.52519 310.93171,797.5438 300.62521,787.343 C 289.81998,776.63601 278.81827,764.2516 277.03503,762.3701 L 276.74034,762.3701 L 277.82842,803.98914"
         style="fill:#005579;fill-rule:nonzero;stroke:none"
         id="path8" />
      <path
         d="M 442.19641,781.88754 C 442.19641,759.6877 429.42656,745.91292 413.18097,745.91292 C 401.77125,745.91292 388.77475,752.26002 388.77475,776.93074 C 388.77475,797.5438 400.18448,813.89522 419.22582,813.89522 C 426.17746,813.89522 442.19641,810.52519 442.19641,781.88754 z M 375.09816,780.00604 C 375.09816,763.05772 386.28118,741.16013 416.05227,741.16013 C 440.68518,741.16013 456.09964,755.5318 456.09964,778.22279 C 456.09964,800.91377 440.23179,818.85202 415.06999,818.85202 C 386.58343,818.85202 375.09816,797.5438 375.09816,780.00604"
         style="fill:#005579;fill-rule:nonzero;stroke:none"
         id="path10" />
      <path
         d="M 488.43979,752.26002 C 486.17291,746.81207 484.5106,745.71644 480.88365,744.72657 C 479.44803,744.33367 477.86119,744.33367 477.03007,744.33367 C 476.19888,744.33367 475.89663,744.03143 475.89663,743.44205 C 475.89663,742.64866 476.95446,742.5429 478.46569,742.5429 C 483.6794,742.5429 489.34652,742.84514 492.82232,742.84514 C 495.31582,742.84514 500.07614,742.5429 504.98762,742.5429 C 506.1966,742.5429 507.25449,742.7469 507.25449,743.44205 C 507.25449,744.12967 506.65,744.33367 505.81881,744.33367 C 504.23204,744.33367 502.72081,744.43191 501.88962,745.0213 C 501.20958,745.51996 500.90734,746.21517 500.90734,747.10673 C 500.90734,748.39132 501.81407,751.16438 503.17415,754.73842 L 520.25098,799.72748 L 520.62878,799.72748 C 524.93576,788.82401 537.78116,756.91457 540.19913,750.37858 C 540.65246,749.08647 541.03025,747.59794 541.03025,746.70631 C 541.03025,745.91292 540.65246,745.12706 539.82127,744.82482 C 538.61229,744.43191 537.10112,744.33367 535.81653,744.33367 C 534.9098,744.33367 534.15422,744.23543 534.15422,743.54029 C 534.15422,742.7469 535.06095,742.5429 536.94997,742.5429 C 541.86144,742.5429 546.01727,742.84514 547.30186,742.84514 C 549.03973,742.84514 553.64896,742.5429 556.59587,742.5429 C 557.95594,742.5429 558.71158,742.7469 558.71158,743.44205 C 558.71158,744.12967 558.10709,744.33367 557.12475,744.33367 C 556.14247,744.33367 554.02675,744.33367 552.28888,745.51996 C 551.00436,746.41159 549.49313,748.0966 546.84846,754.43617 C 542.91927,763.75287 540.27467,769.10257 534.9098,781.29815 C 528.5627,795.76055 523.95348,806.56578 521.76221,811.51499 C 519.19309,817.26518 518.5886,818.85202 517.15298,818.85202 C 515.86846,818.85202 515.33951,817.46166 513.45049,812.80711 L 488.43979,752.26002"
         style="fill:#005579;fill-rule:nonzero;stroke:none"
         id="path12" />
      <path
         d="M 613.26662,786.64786 C 613.79556,786.64786 613.87111,786.34561 613.79556,786.05095 L 604.87935,761.57671 C 604.8038,761.17623 604.65271,760.68509 604.35047,760.68509 C 604.04822,760.68509 603.89707,761.17623 603.82152,761.57671 L 594.67861,785.95271 C 594.60307,786.34561 594.67861,786.64786 595.0564,786.64786 L 613.26662,786.64786 z M 593.09184,791.59713 C 592.56289,791.59713 592.4118,791.80114 592.1851,792.39804 L 586.82029,806.56578 C 585.83801,809.04418 585.38461,811.41682 585.38461,812.61063 C 585.38461,814.39388 586.2158,815.67841 589.3138,815.67841 L 590.82503,815.67841 C 591.9584,815.67841 592.26065,815.87489 592.26065,816.4718 C 592.26065,817.26518 591.73176,817.46166 590.59833,817.46166 C 587.42478,817.46166 583.19334,817.167 580.09534,817.167 C 579.03745,817.167 573.52155,817.46166 568.38338,817.46166 C 567.09885,817.46166 566.49436,817.26518 566.49436,816.4718 C 566.49436,815.87489 566.9477,815.67841 567.70334,815.67841 C 568.61008,815.67841 569.97015,815.58023 570.80134,815.48199 C 575.33496,814.88502 577.22404,811.51499 579.18861,806.56578 L 604.04822,744.33367 C 605.25714,741.45479 605.86163,740.36674 606.84398,740.36674 C 607.75071,740.36674 608.3552,741.25837 609.33749,743.54029 C 611.67984,748.98823 627.5477,789.42098 633.89479,804.48028 C 637.67289,813.40401 640.54419,814.78678 642.65991,815.28551 C 644.09553,815.58023 645.60676,815.67841 646.81574,815.67841 C 647.57139,815.67841 648.10027,815.78424 648.10027,816.4718 C 648.10027,817.26518 647.19353,817.46166 643.49104,817.46166 C 639.9397,817.46166 632.68581,817.46166 624.82749,817.26518 C 623.01402,817.167 621.80504,817.167 621.80504,816.4718 C 621.80504,815.87489 622.18283,815.67841 623.16517,815.58023 C 623.92075,815.38375 624.60079,814.49212 624.07185,813.30583 L 616.13798,792.29228 C 615.98683,791.80114 615.68458,791.59713 615.1557,791.59713 L 593.09184,791.59713"
         style="fill:#005579;fill-rule:nonzero;stroke:none"
         id="path14" />
      <path
         d="M 689.96112,779.11441 C 689.96112,780.20252 690.18781,780.60301 690.86785,780.89767 C 692.98357,781.59281 695.93042,781.88754 698.42399,781.88754 C 702.35312,781.88754 703.63765,781.49457 705.45112,780.20252 C 708.39803,778.02637 711.26933,773.46247 711.26933,765.33964 C 711.26933,751.27015 701.97533,747.20498 696.15712,747.20498 C 693.66361,747.20498 691.85013,747.30322 690.86785,747.59794 C 690.18781,747.80194 689.96112,748.19484 689.96112,748.98823 L 689.96112,779.11441 z M 678.32469,771.28631 C 678.32469,756.21943 678.32469,753.44637 678.09806,750.27276 C 677.87136,746.91032 677.11571,745.32354 673.86662,744.62833 C 673.03543,744.43191 671.37311,744.33367 669.93743,744.33367 C 668.8796,744.33367 668.27511,744.12967 668.27511,743.44205 C 668.27511,742.7469 668.95515,742.5429 670.46637,742.5429 C 675.75564,742.5429 681.95164,742.84514 684.06736,742.84514 C 687.39206,742.84514 694.94813,742.5429 698.04614,742.5429 C 704.24214,742.5429 710.89154,743.1398 716.25635,746.81207 C 719.0521,748.69357 722.9813,753.74103 722.9813,760.38284 C 722.9813,767.7198 719.88329,774.45233 709.90926,782.58268 C 718.74986,793.68263 725.55041,802.5006 731.44417,808.64369 C 736.96013,814.39388 741.04042,815.08903 742.47604,815.38375 C 743.60947,815.58023 744.51621,815.67841 745.27179,815.67841 C 746.10298,815.67841 746.48077,815.98065 746.48077,816.4718 C 746.48077,817.26518 745.80074,817.46166 744.59176,817.46166 L 735.14666,817.46166 C 729.6307,817.46166 727.13719,816.97052 724.56807,815.58023 C 720.33669,813.30583 716.55859,808.64369 710.96708,801.01201 C 707.03795,795.56407 702.50427,788.82401 701.21974,787.343 C 700.6908,786.7461 700.08631,786.64786 699.40627,786.64786 L 690.79231,786.45144 C 690.26336,786.45144 689.96112,786.64786 689.96112,787.23724 L 689.96112,788.62759 C 689.96112,797.84605 689.96112,805.67415 690.49006,809.83757 C 690.79231,812.70887 691.3968,814.88502 694.34364,815.28551 C 695.85487,815.48199 698.04614,815.67841 699.17957,815.67841 C 700.01076,815.67841 700.38855,815.98065 700.38855,816.4718 C 700.38855,817.167 699.70852,817.46166 698.42399,817.46166 C 692.68132,817.46166 685.35189,817.167 683.84066,817.167 C 681.95164,817.167 675.75564,817.46166 671.7509,817.46166 C 670.46637,817.46166 669.78634,817.167 669.78634,816.4718 C 669.78634,815.98065 670.16413,815.67841 671.37311,815.67841 C 672.80879,815.67841 674.01771,815.48199 674.92445,815.28551 C 676.88908,814.88502 677.41796,812.70887 677.79581,809.83757 C 678.32469,805.67415 678.32469,797.84605 678.32469,788.72577 L 678.32469,771.28631"
         style="fill:#005579;fill-rule:nonzero;stroke:none"
         id="path16" />
      <path
         d="M 781.76783,748.0966 L 767.03341,748.4895 C 761.29074,748.69357 758.87284,749.18471 757.36161,751.36839 C 756.37927,752.85698 755.92593,754.04327 755.69923,754.83666 C 755.54814,755.63004 755.24589,756.02295 754.6414,756.02295 C 753.96137,756.02295 753.73467,755.5318 753.73467,754.43617 C 753.73467,752.85698 755.62368,743.83495 755.77484,743.04156 C 756.07708,741.75703 756.37927,741.16013 756.98376,741.16013 C 757.81495,741.16013 758.79723,742.14993 761.29074,742.34641 C 764.1621,742.64866 767.94014,742.84514 771.1893,742.84514 L 810.40548,742.84514 C 816.75257,742.84514 819.17054,741.85527 819.92618,741.85527 C 820.60622,741.85527 820.68176,742.44466 820.68176,743.93319 C 820.68176,746.01869 820.37952,752.85698 820.37952,755.43356 C 820.30397,756.42343 820.15282,757.01281 819.54833,757.01281 C 818.7172,757.01281 818.56604,756.52167 818.41495,755.03314 L 818.33934,753.94503 C 818.11271,751.36839 815.46804,748.59533 806.62738,748.39132 L 794.15983,748.0966 L 794.15983,788.72577 C 794.15983,797.84605 794.15983,805.67415 794.61317,809.92822 C 794.99102,812.70887 795.5199,814.88502 798.54236,815.28551 C 799.90249,815.48199 802.09376,815.67841 803.60499,815.67841 C 804.66281,815.67841 805.19176,815.98065 805.19176,816.4718 C 805.19176,817.167 804.36057,817.46166 803.30274,817.46166 C 796.72889,817.46166 790.45734,817.167 787.73713,817.167 C 785.47032,817.167 779.19871,817.46166 775.19397,817.46166 C 773.90944,817.46166 773.22941,817.167 773.22941,816.4718 C 773.22941,815.98065 773.6072,815.67841 774.81618,815.67841 C 776.32741,815.67841 777.53639,815.48199 778.36758,815.28551 C 780.40769,814.88502 781.01218,812.70887 781.31443,809.83757 C 781.76783,805.67415 781.76783,797.84605 781.76783,788.72577 L 781.76783,748.0966"
         style="fill:#005579;fill-rule:nonzero;stroke:none"
         id="path18" />
      <path
         d="M 858.76451,771.28631 C 858.76451,756.21943 858.76451,753.44637 858.53787,750.27276 C 858.38672,746.91032 857.40444,745.2253 855.21317,744.72657 C 854.07973,744.43191 852.79521,744.33367 851.66177,744.33367 C 850.60394,744.33367 850.075,744.12967 850.075,743.34381 C 850.075,742.7469 850.83064,742.5429 852.41742,742.5429 C 856.19545,742.5429 862.39145,742.84514 865.26282,742.84514 C 867.75633,742.84514 873.65008,742.5429 877.35258,742.5429 C 878.71265,742.5429 879.46829,742.7469 879.46829,743.34381 C 879.46829,744.12967 878.8638,744.33367 877.88146,744.33367 C 876.89918,744.33367 876.06805,744.43191 874.93461,744.62833 C 872.2144,745.12706 871.45882,746.81207 871.23212,750.27276 C 871.08097,753.44637 871.08097,756.21943 871.08097,771.28631 L 871.08097,788.72577 C 871.08097,798.33719 871.08097,806.16529 871.45882,810.42695 C 871.76107,813.10177 872.4411,814.88502 875.38795,815.28551 C 876.82363,815.48199 879.01489,815.67841 880.45058,815.67841 C 881.58395,815.67841 882.03735,815.98065 882.03735,816.4718 C 882.03735,817.167 881.2817,817.46166 880.14833,817.46166 C 873.65008,817.46166 867.37847,817.167 864.73387,817.167 C 862.39145,817.167 856.19545,817.46166 852.19072,817.46166 C 850.90619,817.46166 850.22615,817.167 850.22615,816.4718 C 850.22615,815.98065 850.60394,815.67841 851.81292,815.67841 C 853.32415,815.67841 854.45759,815.48199 855.36426,815.28551 C 857.40444,814.88502 857.93338,813.20759 858.23563,810.32871 C 858.76451,806.16529 858.76451,798.33719 858.76451,788.72577 L 858.76451,771.28631"
         style="fill:#005579;fill-rule:nonzero;stroke:none"
         id="path20" />
      <path
         d="M 917.92883,816.27538 C 916.34206,815.58023 916.03981,815.08903 916.03981,812.90535 C 916.03981,807.45741 916.4176,801.51074 916.49321,799.92396 C 916.6443,798.43537 916.94655,797.34732 917.70219,797.34732 C 918.60893,797.34732 918.68448,798.23895 918.68448,799.03234 C 918.68448,800.32445 919.06227,802.40236 919.59121,804.08738 C 921.78248,811.41682 927.60069,814.09922 933.79669,814.09922 C 942.7129,814.09922 947.01988,808.04679 947.01988,802.79526 C 947.01988,797.94423 945.5842,793.28967 937.34803,786.94258 L 932.7388,783.37607 C 921.85802,774.85276 918.07998,767.91628 918.07998,759.8917 C 918.07998,748.98823 927.22283,741.16013 940.97497,741.16013 C 947.47322,741.16013 951.62911,742.14993 954.19817,742.84514 C 955.1049,743.04156 955.55824,743.34381 955.55824,744.03143 C 955.55824,745.32354 955.18045,748.19484 955.18045,755.92477 C 955.18045,758.10845 954.8782,758.90183 954.04701,758.90183 C 953.36698,758.90183 953.06473,758.30493 953.06473,757.11105 C 953.06473,756.21943 952.61139,753.15164 950.49567,750.575 C 948.98445,748.69357 946.18869,745.71644 939.69044,745.71644 C 932.36101,745.71644 927.90293,749.9781 927.90293,755.92477 C 927.90293,760.48861 930.16974,763.95687 938.40592,770.1982 L 941.20167,772.27618 C 953.06473,781.49457 957.44726,788.12887 957.44726,797.5438 C 957.44726,803.29399 955.25599,810.13223 948.15326,814.78678 C 943.16624,817.96039 937.65027,818.85202 932.36101,818.85202 C 926.61834,818.85202 922.16027,818.15681 917.92883,816.27538"
         style="fill:#005579;fill-rule:nonzero;stroke:none"
         id="path34" />
      <path
         d="M 125.88268,824.02793 C 70.896894,819.82671 54.175232,788.212 72.597017,752.61518 C 82.518187,733.44531 97.675733,712.82472 79.609082,693.76068 C 79.125495,693.1335 79.525969,692.73301 80.289131,693.08059 C 121.41702,709.47733 100.01813,742.58064 92.990947,756.29497 C 79.148159,783.32316 87.981251,816.14692 125.87512,823.21185 C 126.71385,823.39322 126.6534,824.09596 125.88268,824.02793"
         style="fill:#c12239;fill-rule:nonzero;stroke:none"
         id="path36" />
      <path
         d="M 133.21966,793.87905 L 142.52122,678.93555 L 120.72186,678.90533 L 132.44894,793.87905 C 132.50939,794.61959 133.16677,794.59689 133.21966,793.87905"
         style="fill:#005579;fill-rule:nonzero;stroke:none"
         id="path38" />
      <path
         d="M 158.10947,736.02195 C 171.6878,746.69872 193.83474,806.08216 139.77836,823.19674 C 138.90185,823.42344 138.96985,824.08837 139.78591,824.00524 C 225.77441,813.26044 196.23003,751.54976 158.83486,735.289 C 157.83745,734.80545 157.36141,735.43257 158.10947,736.02195"
         style="fill:#e89140;fill-rule:nonzero;stroke:none"
         id="path40" />
    </g>
  </g>
</svg>
